<mxfile host="app.diagrams.net" modified="2022-07-27T06:25:48.065Z" agent="5.0 (Windows NT 10.0; Win64; x64) AppleWebKit/537.36 (KHTML, like Gecko) Chrome/103.0.0.0 Safari/537.36" etag="LwnpAJiNJSYgPwH_zoyJ" version="20.2.1" type="github">
  <diagram id="zZQy4Ji9MJ06SayD3Ak_" name="PÃ¡gina-1">
    <mxGraphModel dx="2249" dy="794" grid="1" gridSize="10" guides="1" tooltips="1" connect="1" arrows="1" fold="1" page="1" pageScale="1" pageWidth="827" pageHeight="1169" math="0" shadow="0">
      <root>
        <mxCell id="0" />
        <mxCell id="1" parent="0" />
        <mxCell id="n7JwhaTMNXg0IiB8HFXk-1" value="&lt;pre style=&quot;background-color:#2b2b2b;color:#a9b7c6;font-family:&#39;JetBrains Mono&#39;,monospace;font-size:9,8pt;&quot;&gt;&lt;span style=&quot;color:#cc7832;&quot;&gt;public class &lt;/span&gt;MouseGamer &lt;span style=&quot;color:#cc7832;&quot;&gt;extends &lt;/span&gt;Mouse &lt;span style=&quot;color:#cc7832;&quot;&gt;implements &lt;/span&gt;EletronicDevice {&lt;br&gt;    &lt;span style=&quot;color:#cc7832;&quot;&gt;private boolean &lt;/span&gt;&lt;span style=&quot;color:#9876aa;&quot;&gt;isRGBOn&lt;/span&gt;&lt;span style=&quot;color:#cc7832;&quot;&gt;;&lt;br&gt;&lt;/span&gt;&lt;span style=&quot;color:#cc7832;&quot;&gt;    private &lt;/span&gt;String &lt;span style=&quot;color:#9876aa;&quot;&gt;color&lt;/span&gt;&lt;span style=&quot;color:#cc7832;&quot;&gt;;&lt;br&gt;&lt;/span&gt;&lt;span style=&quot;color:#cc7832;&quot;&gt;    private int &lt;/span&gt;&lt;span style=&quot;color:#9876aa;&quot;&gt;weightParts&lt;/span&gt;&lt;span style=&quot;color:#cc7832;&quot;&gt;;&lt;br&gt;&lt;/span&gt;&lt;span style=&quot;color:#cc7832;&quot;&gt;&lt;br&gt;&lt;/span&gt;&lt;span style=&quot;color:#cc7832;&quot;&gt;    public void &lt;/span&gt;&lt;span style=&quot;color:#ffc66d;&quot;&gt;setIsRGBOn&lt;/span&gt;(&lt;span style=&quot;color:#cc7832;&quot;&gt;boolean &lt;/span&gt;isRGBOn) {&lt;br&gt;        isRGBOn = &lt;span style=&quot;color:#cc7832;&quot;&gt;this&lt;/span&gt;.&lt;span style=&quot;color:#9876aa;&quot;&gt;isRGBOn&lt;/span&gt;&lt;span style=&quot;color:#cc7832;&quot;&gt;;&lt;br&gt;&lt;/span&gt;&lt;span style=&quot;color:#cc7832;&quot;&gt;    &lt;/span&gt;}&lt;br&gt;&lt;br&gt;    &lt;span style=&quot;color:#cc7832;&quot;&gt;public boolean &lt;/span&gt;&lt;span style=&quot;color:#ffc66d;&quot;&gt;getIsRGBOn&lt;/span&gt;() {&lt;br&gt;        &lt;span style=&quot;color:#cc7832;&quot;&gt;return &lt;/span&gt;&lt;span style=&quot;color:#9876aa;&quot;&gt;isRGBOn&lt;/span&gt;&lt;span style=&quot;color:#cc7832;&quot;&gt;;&lt;br&gt;&lt;/span&gt;&lt;span style=&quot;color:#cc7832;&quot;&gt;    &lt;/span&gt;}&lt;br&gt;&lt;br&gt;    &lt;span style=&quot;color:#cc7832;&quot;&gt;public &lt;/span&gt;String &lt;span style=&quot;color:#ffc66d;&quot;&gt;getIsRGBOn&lt;/span&gt;(String color) {&lt;br&gt;        &lt;span style=&quot;color:#cc7832;&quot;&gt;if&lt;/span&gt;(getIsRGBOn() &amp;amp;&amp;amp; color.equals(&lt;span style=&quot;color:#cc7832;&quot;&gt;this&lt;/span&gt;.&lt;span style=&quot;color:#9876aa;&quot;&gt;color&lt;/span&gt;)) {&lt;br&gt;            &lt;span style=&quot;color:#cc7832;&quot;&gt;return &lt;/span&gt;&lt;span style=&quot;color:#6a8759;&quot;&gt;&quot;The RGB is on and the color is &quot; &lt;/span&gt;+ color&lt;span style=&quot;color:#cc7832;&quot;&gt;;&lt;br&gt;&lt;/span&gt;&lt;span style=&quot;color:#cc7832;&quot;&gt;        &lt;/span&gt;}&lt;br&gt;        &lt;span style=&quot;color:#cc7832;&quot;&gt;return &lt;/span&gt;&lt;span style=&quot;color:#6a8759;&quot;&gt;&quot;The RGB is off&quot;&lt;/span&gt;&lt;span style=&quot;color:#cc7832;&quot;&gt;;&lt;br&gt;&lt;/span&gt;&lt;span style=&quot;color:#cc7832;&quot;&gt;    &lt;/span&gt;}&lt;br&gt;&lt;br&gt;    &lt;span style=&quot;color:#cc7832;&quot;&gt;public &lt;/span&gt;String &lt;span style=&quot;color:#ffc66d;&quot;&gt;click&lt;/span&gt;() {&lt;br&gt;        &lt;span style=&quot;color:#cc7832;&quot;&gt;return &lt;/span&gt;&lt;span style=&quot;color:#6a8759;&quot;&gt;&quot;noisy click&quot;&lt;/span&gt;&lt;span style=&quot;color:#cc7832;&quot;&gt;;&lt;br&gt;&lt;/span&gt;&lt;span style=&quot;color:#cc7832;&quot;&gt;    &lt;/span&gt;}&lt;br&gt;&lt;br&gt;    &lt;span style=&quot;color:#bbb529;&quot;&gt;@Override&lt;br&gt;&lt;/span&gt;&lt;span style=&quot;color:#bbb529;&quot;&gt;    &lt;/span&gt;&lt;span style=&quot;color:#cc7832;&quot;&gt;public &lt;/span&gt;String &lt;span style=&quot;color:#ffc66d;&quot;&gt;powerOn&lt;/span&gt;() {&lt;br&gt;        &lt;span style=&quot;color:#cc7832;&quot;&gt;return &lt;/span&gt;&lt;span style=&quot;color:#6a8759;&quot;&gt;&quot;mouse connected&quot;&lt;/span&gt;&lt;span style=&quot;color:#cc7832;&quot;&gt;;&lt;br&gt;&lt;/span&gt;&lt;span style=&quot;color:#cc7832;&quot;&gt;    &lt;/span&gt;}&lt;br&gt;&lt;br&gt;    &lt;span style=&quot;color:#cc7832;&quot;&gt;public static void &lt;/span&gt;&lt;span style=&quot;color:#ffc66d;&quot;&gt;main&lt;/span&gt;(String[] args) {&lt;br&gt;        MouseGamer radMouse = &lt;span style=&quot;color:#cc7832;&quot;&gt;new &lt;/span&gt;MouseGamer()&lt;span style=&quot;color:#cc7832;&quot;&gt;;&lt;br&gt;&lt;/span&gt;&lt;span style=&quot;color:#cc7832;&quot;&gt;        &lt;/span&gt;radMouse.getIsRGBOn(&lt;span style=&quot;color:#6a8759;&quot;&gt;&quot;purple&quot;&lt;/span&gt;)&lt;span style=&quot;color:#cc7832;&quot;&gt;;&lt;br&gt;&lt;/span&gt;&lt;span style=&quot;color:#cc7832;&quot;&gt;    &lt;/span&gt;}&lt;br&gt;}&lt;/pre&gt;" style="text;html=1;strokeColor=none;fillColor=none;align=left;verticalAlign=middle;whiteSpace=wrap;rounded=0;" vertex="1" parent="1">
          <mxGeometry x="-250" y="610" width="60" height="30" as="geometry" />
        </mxCell>
        <mxCell id="n7JwhaTMNXg0IiB8HFXk-3" value="" style="endArrow=none;html=1;rounded=0;" edge="1" parent="1">
          <mxGeometry width="50" height="50" relative="1" as="geometry">
            <mxPoint x="-90" y="350" as="sourcePoint" />
            <mxPoint y="350" as="targetPoint" />
            <Array as="points">
              <mxPoint x="-90" y="320" />
              <mxPoint y="320" />
            </Array>
          </mxGeometry>
        </mxCell>
        <mxCell id="n7JwhaTMNXg0IiB8HFXk-4" value="" style="endArrow=classic;html=1;rounded=0;entryX=1;entryY=1;entryDx=0;entryDy=0;" edge="1" parent="1" target="n7JwhaTMNXg0IiB8HFXk-5">
          <mxGeometry width="50" height="50" relative="1" as="geometry">
            <mxPoint x="-50" y="320" as="sourcePoint" />
            <mxPoint x="-40" y="250" as="targetPoint" />
          </mxGeometry>
        </mxCell>
        <mxCell id="n7JwhaTMNXg0IiB8HFXk-5" value="Inheritance" style="rounded=0;whiteSpace=wrap;html=1;" vertex="1" parent="1">
          <mxGeometry x="-220" y="230" width="100" height="40" as="geometry" />
        </mxCell>
        <mxCell id="n7JwhaTMNXg0IiB8HFXk-6" value="Interface" style="rounded=0;whiteSpace=wrap;html=1;" vertex="1" parent="1">
          <mxGeometry x="50" y="210" width="100" height="40" as="geometry" />
        </mxCell>
        <mxCell id="n7JwhaTMNXg0IiB8HFXk-8" value="Superclass" style="rounded=0;whiteSpace=wrap;html=1;" vertex="1" parent="1">
          <mxGeometry x="-70" y="200" width="100" height="40" as="geometry" />
        </mxCell>
        <mxCell id="n7JwhaTMNXg0IiB8HFXk-9" value="" style="endArrow=none;html=1;rounded=0;" edge="1" parent="1">
          <mxGeometry width="50" height="50" relative="1" as="geometry">
            <mxPoint x="-40" y="370" as="sourcePoint" />
            <mxPoint y="370" as="targetPoint" />
            <Array as="points">
              <mxPoint x="-40" y="360" />
              <mxPoint y="360" />
            </Array>
          </mxGeometry>
        </mxCell>
        <mxCell id="n7JwhaTMNXg0IiB8HFXk-10" value="" style="endArrow=classic;html=1;rounded=0;entryX=0.5;entryY=1;entryDx=0;entryDy=0;" edge="1" parent="1" target="n7JwhaTMNXg0IiB8HFXk-8">
          <mxGeometry width="50" height="50" relative="1" as="geometry">
            <mxPoint x="-20" y="360" as="sourcePoint" />
            <mxPoint x="-125.71428571428578" y="270" as="targetPoint" />
            <Array as="points">
              <mxPoint x="10" y="350" />
              <mxPoint x="10" y="320" />
            </Array>
          </mxGeometry>
        </mxCell>
        <mxCell id="n7JwhaTMNXg0IiB8HFXk-11" value="" style="endArrow=none;html=1;rounded=0;" edge="1" parent="1">
          <mxGeometry width="50" height="50" relative="1" as="geometry">
            <mxPoint x="10" y="370" as="sourcePoint" />
            <mxPoint x="170" y="370" as="targetPoint" />
            <Array as="points">
              <mxPoint x="10" y="360" />
              <mxPoint x="170" y="360" />
            </Array>
          </mxGeometry>
        </mxCell>
        <mxCell id="n7JwhaTMNXg0IiB8HFXk-12" value="" style="endArrow=classic;html=1;rounded=0;entryX=0.5;entryY=1;entryDx=0;entryDy=0;" edge="1" parent="1" target="n7JwhaTMNXg0IiB8HFXk-6">
          <mxGeometry width="50" height="50" relative="1" as="geometry">
            <mxPoint x="90" y="360" as="sourcePoint" />
            <mxPoint x="-110" y="280" as="targetPoint" />
          </mxGeometry>
        </mxCell>
        <mxCell id="n7JwhaTMNXg0IiB8HFXk-14" value="" style="endArrow=none;html=1;rounded=0;" edge="1" parent="1">
          <mxGeometry width="50" height="50" relative="1" as="geometry">
            <mxPoint x="-260" y="440" as="sourcePoint" />
            <mxPoint x="-260" y="380" as="targetPoint" />
            <Array as="points">
              <mxPoint x="-270" y="440" />
              <mxPoint x="-270" y="380" />
            </Array>
          </mxGeometry>
        </mxCell>
        <mxCell id="n7JwhaTMNXg0IiB8HFXk-15" value="Access modifiers" style="rounded=0;whiteSpace=wrap;html=1;" vertex="1" parent="1">
          <mxGeometry x="-413" y="400" width="100" height="40" as="geometry" />
        </mxCell>
        <mxCell id="n7JwhaTMNXg0IiB8HFXk-16" value="" style="endArrow=classic;html=1;rounded=0;entryX=1;entryY=0.5;entryDx=0;entryDy=0;" edge="1" parent="1" target="n7JwhaTMNXg0IiB8HFXk-15">
          <mxGeometry width="50" height="50" relative="1" as="geometry">
            <mxPoint x="-270" y="420" as="sourcePoint" />
            <mxPoint x="-110" y="280" as="targetPoint" />
          </mxGeometry>
        </mxCell>
        <mxCell id="n7JwhaTMNXg0IiB8HFXk-17" value="" style="endArrow=none;html=1;rounded=0;" edge="1" parent="1">
          <mxGeometry width="50" height="50" relative="1" as="geometry">
            <mxPoint x="-260" y="660" as="sourcePoint" />
            <mxPoint x="-260" y="570" as="targetPoint" />
            <Array as="points">
              <mxPoint x="-270" y="660" />
              <mxPoint x="-270" y="570" />
            </Array>
          </mxGeometry>
        </mxCell>
        <mxCell id="n7JwhaTMNXg0IiB8HFXk-18" value="Method&lt;br&gt;Overloading" style="rounded=0;whiteSpace=wrap;html=1;" vertex="1" parent="1">
          <mxGeometry x="-413" y="590" width="100" height="40" as="geometry" />
        </mxCell>
        <mxCell id="n7JwhaTMNXg0IiB8HFXk-19" value="" style="endArrow=classic;html=1;rounded=0;entryX=1;entryY=0.5;entryDx=0;entryDy=0;" edge="1" parent="1" target="n7JwhaTMNXg0IiB8HFXk-18">
          <mxGeometry width="50" height="50" relative="1" as="geometry">
            <mxPoint x="-270" y="610" as="sourcePoint" />
            <mxPoint x="-110" y="470" as="targetPoint" />
          </mxGeometry>
        </mxCell>
        <mxCell id="n7JwhaTMNXg0IiB8HFXk-20" value="" style="endArrow=none;html=1;rounded=0;" edge="1" parent="1">
          <mxGeometry width="50" height="50" relative="1" as="geometry">
            <mxPoint x="-260" y="790" as="sourcePoint" />
            <mxPoint x="-260" y="670" as="targetPoint" />
            <Array as="points">
              <mxPoint x="-270" y="790" />
              <mxPoint x="-270" y="670" />
            </Array>
          </mxGeometry>
        </mxCell>
        <mxCell id="n7JwhaTMNXg0IiB8HFXk-21" value="Method&lt;br&gt;Overriding" style="rounded=0;whiteSpace=wrap;html=1;" vertex="1" parent="1">
          <mxGeometry x="-413" y="700" width="100" height="40" as="geometry" />
        </mxCell>
        <mxCell id="n7JwhaTMNXg0IiB8HFXk-22" value="" style="endArrow=classic;html=1;rounded=0;entryX=1;entryY=0.5;entryDx=0;entryDy=0;" edge="1" parent="1" target="n7JwhaTMNXg0IiB8HFXk-21">
          <mxGeometry width="50" height="50" relative="1" as="geometry">
            <mxPoint x="-270" y="720" as="sourcePoint" />
            <mxPoint x="-110" y="580" as="targetPoint" />
          </mxGeometry>
        </mxCell>
        <mxCell id="n7JwhaTMNXg0IiB8HFXk-23" value="" style="endArrow=none;html=1;rounded=0;" edge="1" parent="1">
          <mxGeometry width="50" height="50" relative="1" as="geometry">
            <mxPoint x="-260" y="560" as="sourcePoint" />
            <mxPoint x="-260" y="450" as="targetPoint" />
            <Array as="points">
              <mxPoint x="-270" y="560" />
              <mxPoint x="-270" y="450" />
            </Array>
          </mxGeometry>
        </mxCell>
        <mxCell id="n7JwhaTMNXg0IiB8HFXk-24" value="Encapsulation" style="rounded=0;whiteSpace=wrap;html=1;" vertex="1" parent="1">
          <mxGeometry x="-413" y="481" width="100" height="40" as="geometry" />
        </mxCell>
        <mxCell id="n7JwhaTMNXg0IiB8HFXk-25" value="" style="endArrow=classic;html=1;rounded=0;entryX=1;entryY=0.5;entryDx=0;entryDy=0;" edge="1" parent="1" target="n7JwhaTMNXg0IiB8HFXk-24">
          <mxGeometry width="50" height="50" relative="1" as="geometry">
            <mxPoint x="-270" y="501" as="sourcePoint" />
            <mxPoint x="-110" y="361" as="targetPoint" />
          </mxGeometry>
        </mxCell>
        <mxCell id="n7JwhaTMNXg0IiB8HFXk-26" value="Subclass" style="rounded=0;whiteSpace=wrap;html=1;" vertex="1" parent="1">
          <mxGeometry x="-260" y="300" width="100" height="40" as="geometry" />
        </mxCell>
        <mxCell id="n7JwhaTMNXg0IiB8HFXk-27" value="" style="endArrow=none;html=1;rounded=0;" edge="1" parent="1">
          <mxGeometry width="50" height="50" relative="1" as="geometry">
            <mxPoint x="-165" y="370" as="sourcePoint" />
            <mxPoint x="-95" y="370" as="targetPoint" />
            <Array as="points">
              <mxPoint x="-165" y="360" />
              <mxPoint x="-95" y="360" />
            </Array>
          </mxGeometry>
        </mxCell>
        <mxCell id="n7JwhaTMNXg0IiB8HFXk-28" value="" style="endArrow=classic;html=1;rounded=0;entryX=1;entryY=1;entryDx=0;entryDy=0;" edge="1" parent="1" target="n7JwhaTMNXg0IiB8HFXk-26">
          <mxGeometry width="50" height="50" relative="1" as="geometry">
            <mxPoint x="-130" y="360" as="sourcePoint" />
            <mxPoint x="-380" y="280" as="targetPoint" />
          </mxGeometry>
        </mxCell>
        <mxCell id="n7JwhaTMNXg0IiB8HFXk-29" value="" style="endArrow=none;html=1;rounded=0;" edge="1" parent="1">
          <mxGeometry width="50" height="50" relative="1" as="geometry">
            <mxPoint x="-260" y="870" as="sourcePoint" />
            <mxPoint x="-260" y="800" as="targetPoint" />
            <Array as="points">
              <mxPoint x="-270" y="870" />
              <mxPoint x="-270" y="800" />
            </Array>
          </mxGeometry>
        </mxCell>
        <mxCell id="n7JwhaTMNXg0IiB8HFXk-30" value="Abstraction" style="rounded=0;whiteSpace=wrap;html=1;" vertex="1" parent="1">
          <mxGeometry x="-413" y="813" width="100" height="40" as="geometry" />
        </mxCell>
        <mxCell id="n7JwhaTMNXg0IiB8HFXk-31" value="" style="endArrow=classic;html=1;rounded=0;entryX=1;entryY=0.5;entryDx=0;entryDy=0;" edge="1" parent="1" target="n7JwhaTMNXg0IiB8HFXk-30">
          <mxGeometry width="50" height="50" relative="1" as="geometry">
            <mxPoint x="-270" y="833" as="sourcePoint" />
            <mxPoint x="-110" y="693" as="targetPoint" />
          </mxGeometry>
        </mxCell>
      </root>
    </mxGraphModel>
  </diagram>
</mxfile>
